<svg xmlns="http://www.w3.org/2000/svg" viewBox="0 0 64 64" role="img" aria-label="Sheriff badge">
  <defs>
    <linearGradient id="badgeGold" x1="8" x2="56" y1="8" y2="56" gradientUnits="userSpaceOnUse">
      <stop offset="0" stop-color="#ffd36a"/>
      <stop offset="0.52" stop-color="#f8b83c"/>
      <stop offset="1" stop-color="#df951f"/>
    </linearGradient>
  </defs>
  <path fill="url(#badgeGold)" d="M32 4.5 40.1 22l18.9-2.7L47.4 34.5 59 49.7 40.1 47 32 64 23.9 47 5 49.7l11.6-15.2L5 19.3 23.9 22 32 4.5Z"/>
  <path fill="#ffd36a" d="M32 0a4.1 4.1 0 0 1 4.1 4.1A4.1 4.1 0 0 1 32 8.2a4.1 4.1 0 0 1-4.1-4.1A4.1 4.1 0 0 1 32 0Zm0 55.8a4.1 4.1 0 0 1 4.1 4.1A4.1 4.1 0 0 1 32 64a4.1 4.1 0 0 1-4.1-4.1 4.1 4.1 0 0 1 4.1-4.1ZM4.1 15.3a4.1 4.1 0 0 1 4.1 4.1 4.1 4.1 0 0 1-4.1 4.1A4.1 4.1 0 0 1 0 19.4a4.1 4.1 0 0 1 4.1-4.1Zm55.8 0a4.1 4.1 0 0 1 4.1 4.1 4.1 4.1 0 0 1-4.1 4.1 4.1 4.1 0 0 1-4.1-4.1 4.1 4.1 0 0 1 4.1-4.1ZM4.1 40.5a4.1 4.1 0 0 1 4.1 4.1 4.1 4.1 0 0 1-4.1 4.1A4.1 4.1 0 0 1 0 44.6a4.1 4.1 0 0 1 4.1-4.1Zm55.8 0a4.1 4.1 0 0 1 4.1 4.1 4.1 4.1 0 0 1-4.1 4.1 4.1 4.1 0 0 1-4.1-4.1 4.1 4.1 0 0 1 4.1-4.1Z"/>
  <path fill="#f3ac32" d="M32 7.9v48.2L23.9 47 5 49.7l11.6-15.2L5 19.3 23.9 22 32 7.9Z" opacity=".35"/>
</svg>
